<?xml version="1.0" encoding="UTF-8" standalone="no"?>
<!-- Created with Inkscape (http://www.inkscape.org/) -->

<svg
   width="200.7881mm"
   height="84.991776mm"
   viewBox="0 0 200.7881 84.991776"
   version="1.1"
   id="svg1"
   xml:space="preserve"
   inkscape:export-filename="ELIXIR-TrP-Bioschemas\docs\assets\images\HTMLvsCMS.svg"
   inkscape:export-xdpi="96"
   inkscape:export-ydpi="96"
   inkscape:version="1.3.2 (091e20e, 2023-11-25, custom)"
   sodipodi:docname="illustrations.svg"
   xmlns:inkscape="http://www.inkscape.org/namespaces/inkscape"
   xmlns:sodipodi="http://sodipodi.sourceforge.net/DTD/sodipodi-0.dtd"
   xmlns="http://www.w3.org/2000/svg"
   xmlns:svg="http://www.w3.org/2000/svg"><sodipodi:namedview
     id="namedview1"
     pagecolor="#ffffff"
     bordercolor="#000000"
     borderopacity="0.25"
     inkscape:showpageshadow="2"
     inkscape:pageopacity="0.0"
     inkscape:pagecheckerboard="0"
     inkscape:deskcolor="#d1d1d1"
     inkscape:document-units="mm"
     inkscape:zoom="0.69219276"
     inkscape:cx="-106.90664"
     inkscape:cy="448.57447"
     inkscape:window-width="2400"
     inkscape:window-height="1261"
     inkscape:window-x="2391"
     inkscape:window-y="-9"
     inkscape:window-maximized="1"
     inkscape:current-layer="g5" /><defs
     id="defs1"><marker
       style="overflow:visible"
       id="marker79"
       refX="0"
       refY="0"
       orient="auto-start-reverse"
       inkscape:stockid="Stylized triangle arrow"
       markerWidth="1"
       markerHeight="1"
       viewBox="0 0 1 1"
       inkscape:isstock="true"
       inkscape:collect="always"
       preserveAspectRatio="xMidYMid"><path
         transform="scale(0.5)"
         style="fill:context-stroke;fill-rule:evenodd;stroke:context-stroke;stroke-width:1pt"
         d="m 6,0 c -3,1 -7,3 -9,5 0,0 0,-4 2,-5 -2,-1 -2,-5 -2,-5 2,2 6,4 9,5 z"
         id="path79" /></marker><filter
       inkscape:collect="always"
       style="color-interpolation-filters:sRGB"
       id="filter39"
       x="-0.46509739"
       y="-0.21822783"
       width="1.9299257"
       height="1.4353245"><feGaussianBlur
         inkscape:collect="always"
         stdDeviation="0.27359934"
         id="feGaussianBlur39" /></filter><filter
       inkscape:collect="always"
       style="color-interpolation-filters:sRGB"
       id="filter40"
       x="-0.43514148"
       y="-0.28300954"
       width="1.8705104"
       height="1.5651277"><feGaussianBlur
         inkscape:collect="always"
         stdDeviation="0.34296566"
         id="feGaussianBlur40" /></filter><filter
       inkscape:collect="always"
       style="color-interpolation-filters:sRGB"
       id="filter41"
       x="-0.11896586"
       y="-0.1146087"
       width="1.2382949"
       height="1.2283349"><feGaussianBlur
         inkscape:collect="always"
         stdDeviation="1.9794618"
         id="feGaussianBlur41" /></filter><filter
       inkscape:collect="always"
       style="color-interpolation-filters:sRGB"
       id="filter42"
       x="-0.03610525"
       y="-0.1154815"
       width="1.0722105"
       height="1.230963"><feGaussianBlur
         inkscape:collect="always"
         stdDeviation="0.2766343"
         id="feGaussianBlur42" /></filter><filter
       inkscape:collect="always"
       style="color-interpolation-filters:sRGB"
       id="filter58"
       x="-0.070592849"
       y="-0.068771707"
       width="1.1417007"
       height="1.1363941"><feGaussianBlur
         inkscape:collect="always"
         stdDeviation="0.14248357"
         id="feGaussianBlur58" /></filter><filter
       inkscape:collect="always"
       style="color-interpolation-filters:sRGB"
       id="filter60"
       x="-0.070592849"
       y="-0.068771707"
       width="1.1417007"
       height="1.1363941"><feGaussianBlur
         inkscape:collect="always"
         stdDeviation="0.14248357"
         id="feGaussianBlur60" /></filter><filter
       inkscape:collect="always"
       style="color-interpolation-filters:sRGB"
       id="filter62"
       x="-0.16279826"
       y="-0.23977198"
       width="1.3255965"
       height="1.479513"><feGaussianBlur
         inkscape:collect="always"
         stdDeviation="0.18680291"
         id="feGaussianBlur62" /></filter><filter
       inkscape:collect="always"
       style="color-interpolation-filters:sRGB"
       id="filter63"
       x="-0.096769563"
       y="-0.14614902"
       width="1.1935391"
       height="1.2925373"><feGaussianBlur
         inkscape:collect="always"
         stdDeviation="0.18680291"
         id="feGaussianBlur63" /></filter><filter
       inkscape:collect="always"
       style="color-interpolation-filters:sRGB"
       id="filter64"
       x="-0.06778616"
       y="-0.098872748"
       width="1.1355723"
       height="1.198302"><feGaussianBlur
         inkscape:collect="always"
         stdDeviation="0.18680291"
         id="feGaussianBlur64" /></filter><filter
       inkscape:collect="always"
       style="color-interpolation-filters:sRGB"
       id="filter6"
       x="-0.093924366"
       y="-0.06336634"
       width="1.1878487"
       height="1.1267327"><feGaussianBlur
         inkscape:collect="always"
         stdDeviation="0.39762523"
         id="feGaussianBlur6" /></filter></defs><g
     inkscape:label="Layer 1"
     inkscape:groupmode="layer"
     id="layer1"
     transform="translate(-4.869691,-178.841)"><g
       id="g6"><path
         style="fill:none;fill-opacity:1;stroke:#000000;stroke-width:0.513001;stroke-linecap:round;stroke-dasharray:none;stroke-opacity:1;paint-order:fill markers stroke"
         d="m 81.728286,231.77278 c 0.06295,0.20929 0.27844,-1.12626 -0.180621,-2.00379 -0.07733,-0.14783 -0.142276,-0.21094 -0.280887,-0.30415 -0.262344,-0.17643 -0.616809,-0.20712 -0.859547,-0.005 -0.298957,0.24931 -0.201346,0.74683 0.04566,1.04743 0.236915,0.28832 1.129247,0.77935 1.236645,1.1364 z"
         id="path38"
         sodipodi:nodetypes="sssssss" /><path
         style="opacity:0.411079;mix-blend-mode:normal;fill:none;fill-opacity:1;stroke:#000000;stroke-width:0.950202;stroke-linecap:round;stroke-dasharray:none;stroke-opacity:1;paint-order:fill markers stroke;filter:url(#filter39)"
         d="m 9.4937275,129.5945 c 0.013402,-0.49853 -0.1739717,-3.51829 -0.059125,-4.00359 0.071215,-0.30093 0.3855267,-0.68019 0.6419245,-0.85308 0.485279,-0.32722 1.054446,-0.45147 1.503456,-0.076 0.553004,0.46239 0.127502,2.01862 -0.582804,2.05248 -0.690599,0.0329 -1.5113381,3.17358 -1.5034515,2.88022 z"
         id="path39"
         sodipodi:nodetypes="ssssss"
         transform="matrix(0.54060624,0,0,0.53916633,56.973714,162.35144)" /><path
         style="fill:none;fill-opacity:1;stroke:#000000;stroke-width:0.513001;stroke-linecap:round;stroke-dasharray:none;stroke-opacity:1;paint-order:fill markers stroke"
         d="m 61.914303,232.04227 c 0.0072,-0.26879 -0.09405,-1.89695 -0.03196,-2.1586 0.0385,-0.16225 0.208418,-0.36674 0.347028,-0.45995 0.262345,-0.17643 0.57004,-0.24342 0.812778,-0.041 0.298957,0.2493 0.06893,1.08837 -0.315067,1.10663 -0.373343,0.0177 -0.817039,1.71108 -0.812776,1.55291 z"
         id="path37"
         sodipodi:nodetypes="ssssss" /><path
         style="opacity:0.527697;mix-blend-mode:normal;fill:none;fill-opacity:1;stroke:#000000;stroke-width:0.950202;stroke-linecap:round;stroke-dasharray:none;stroke-opacity:1;paint-order:fill markers stroke;filter:url(#filter40)"
         d="m 45.435644,129.16224 c 0.11645,0.38818 0.515052,-2.08889 -0.334108,-3.71646 -0.143043,-0.27417 -0.263179,-0.39122 -0.519577,-0.56411 -0.485278,-0.32722 -1.140959,-0.38414 -1.589969,-0.009 -0.553004,0.46239 -0.372445,1.38513 0.08447,1.94267 0.438239,0.53475 2.088853,1.44547 2.287516,2.1077 z"
         id="path40"
         sodipodi:nodetypes="sssssss"
         transform="matrix(0.54060624,0,0,0.53916633,56.973714,162.35144)" /><rect
         style="opacity:0.987448;fill:#ffffff;fill-opacity:1;stroke:#000000;stroke-width:0.426;stroke-linecap:round;stroke-dasharray:none;stroke-opacity:1;paint-order:fill markers stroke"
         id="rect28"
         width="17.607128"
         height="26.085323"
         x="62.829376"
         y="213.67302"
         rx="2.0455036"
         ry="2.0455036"
         clip-path="none" /><path
         sodipodi:type="star"
         style="opacity:0.247813;mix-blend-mode:normal;fill:#000000;fill-opacity:1;stroke:#000000;stroke-width:6.22547;stroke-dasharray:none;stroke-opacity:1;paint-order:fill markers stroke;filter:url(#filter41)"
         id="path41"
         inkscape:flatsided="true"
         sodipodi:sides="3"
         sodipodi:cx="163.44737"
         sodipodi:cy="338.13174"
         sodipodi:r1="40.286362"
         sodipodi:r2="20.143181"
         sodipodi:arg1="2.2574179"
         sodipodi:arg2="3.3046154"
         inkscape:rounded="0.07"
         inkscape:randomized="0"
         d="m 137.90872,369.2889 c -3.7776,-3.0964 6.75473,-67.12955 11.32509,-68.85285 4.57036,-1.72331 54.75853,39.41454 53.96577,44.23424 -0.79275,4.8197 -61.51325,27.71501 -65.29086,24.61861 z"
         transform="matrix(-0.03449189,0.06170298,-0.05735436,-0.02499467,103.58033,213.36214)"
         inkscape:transform-center-x="-1.0501384"
         inkscape:transform-center-y="-1.6542722" /><path
         sodipodi:type="star"
         style="opacity:0.987448;fill:#f4f0ff;fill-opacity:1;stroke:#000000;stroke-width:6.22547;stroke-dasharray:none;stroke-opacity:1;paint-order:fill markers stroke"
         id="path34"
         inkscape:flatsided="true"
         sodipodi:sides="3"
         sodipodi:cx="163.44737"
         sodipodi:cy="338.13174"
         sodipodi:r1="40.286362"
         sodipodi:r2="20.143181"
         sodipodi:arg1="2.2574179"
         sodipodi:arg2="3.3046154"
         inkscape:rounded="0.07"
         inkscape:randomized="0"
         d="m 137.90872,369.2889 c -3.7776,-3.0964 6.75473,-67.12955 11.32509,-68.85285 4.57036,-1.72331 54.75853,39.41454 53.96577,44.23424 -0.79275,4.8197 -61.51325,27.71501 -65.29086,24.61861 z"
         transform="matrix(-0.03449189,0.06170298,-0.05735436,-0.02499467,103.21504,213.03426)"
         inkscape:transform-center-x="-1.0501384"
         inkscape:transform-center-y="-1.6542722" /><text
         xml:space="preserve"
         style="font-size:9.52299px;line-height:normal;font-family:'Open Sans';-inkscape-font-specification:'Open Sans';text-decoration-color:#000000;opacity:0.987448;fill:#2d2b2d;fill-opacity:1;stroke:#000000;stroke-width:0.713;stroke-linecap:round;stroke-dasharray:none;stroke-opacity:1;paint-order:fill markers stroke"
         x="65.075027"
         y="225.34155"
         id="text37"
         transform="scale(1.0013344,0.99866737)"><tspan
           sodipodi:role="line"
           id="tspan37"
           style="font-style:normal;font-variant:normal;font-weight:normal;font-stretch:normal;font-family:Candara;-inkscape-font-specification:Candara;fill:#2d2b2d;fill-opacity:1;stroke:#000000;stroke-width:0.713;stroke-dasharray:none;stroke-opacity:1"
           x="65.075027"
           y="225.34155">&lt;/&gt;</tspan></text><rect
         style="opacity:0.303207;mix-blend-mode:normal;fill:none;fill-opacity:1;stroke:#000000;stroke-width:1.32065;stroke-linecap:round;stroke-dasharray:none;stroke-opacity:1;paint-order:fill markers stroke;filter:url(#filter42)"
         id="rect41"
         width="36.677418"
         height="11.467181"
         x="9.1323452"
         y="126.88566"
         rx="3.7837219"
         ry="1.60065"
         transform="matrix(0.54060624,0,0,0.53916633,56.973714,162.35144)" /><rect
         style="fill:#ffffff;fill-opacity:1;stroke:#000000;stroke-width:0.713;stroke-linecap:round;stroke-dasharray:none;stroke-opacity:1;paint-order:fill markers stroke"
         id="rect37"
         width="19.828041"
         height="6.1827178"
         x="61.947247"
         y="230.39961"
         rx="2.0455036"
         ry="0.86301655" /><text
         xml:space="preserve"
         style="font-size:5.34904px;line-height:normal;font-family:'Open Sans';-inkscape-font-specification:'Open Sans';text-decoration-color:#000000;opacity:0.987448;fill:#2d2b2d;fill-opacity:1;stroke:#000000;stroke-width:0.513001;stroke-linecap:round;stroke-dasharray:none;stroke-opacity:1;paint-order:fill markers stroke"
         x="63.918236"
         y="237.91086"
         id="text41"
         transform="scale(1.0118368,0.98830167)"><tspan
           sodipodi:role="line"
           id="tspan41"
           style="font-style:normal;font-variant:normal;font-weight:normal;font-stretch:normal;font-family:Candara;-inkscape-font-specification:Candara;fill:#2d2b2d;fill-opacity:1;stroke:#000000;stroke-width:0.513001;stroke-dasharray:none;stroke-opacity:1"
           x="63.918236"
           y="237.91086">HTML</tspan></text><text
         xml:space="preserve"
         style="font-style:normal;font-variant:normal;font-weight:normal;font-stretch:normal;font-size:4.95584px;line-height:normal;font-family:Candara;-inkscape-font-specification:Candara;text-decoration-color:#000000;fill:#000000;fill-opacity:1;stroke:#2d2b2d;stroke-width:0.213;stroke-linecap:round;stroke-dasharray:none;stroke-opacity:1;paint-order:fill markers stroke"
         x="60.758907"
         y="252.18945"
         id="text42"
         transform="scale(1.0062555,0.99378339)"><tspan
           sodipodi:role="line"
           id="tspan42"
           style="fill:#000000;fill-opacity:1;stroke:#2d2b2d;stroke-width:0.213;stroke-dasharray:none;stroke-opacity:1"
           x="60.758907"
           y="252.18945">static pages</tspan></text><text
         xml:space="preserve"
         style="font-style:normal;font-variant:normal;font-weight:normal;font-stretch:normal;font-size:9.17943px;line-height:normal;font-family:Candara;-inkscape-font-specification:Candara;text-decoration-color:#000000;white-space:pre;inline-size:94.4765;fill:#000000;fill-opacity:1;stroke:#2d2b2d;stroke-width:0.394528;stroke-linecap:round;stroke-dasharray:none;stroke-opacity:1;paint-order:fill markers stroke"
         x="189.7041"
         y="156.25581"
         id="text65"
         transform="matrix(0.54326306,0,0,0.53652955,-3.60913,163.97314)"><tspan
           x="189.7041"
           y="156.25581"
           id="tspan6"><tspan
             style="text-align:center;text-anchor:middle"
             id="tspan5">Content 
</tspan></tspan><tspan
           x="189.7041"
           y="167.7301"
           id="tspan8"><tspan
             style="text-align:center;text-anchor:middle"
             id="tspan7">managemant system</tspan></tspan></text><path
         style="opacity:0.411079;mix-blend-mode:normal;fill:none;fill-opacity:1;stroke:#2b282b;stroke-width:0.950202;stroke-linecap:round;stroke-dasharray:none;stroke-opacity:1;paint-order:fill markers stroke;filter:url(#filter39)"
         d="m 106.53985,129.5945 c 0.0134,-0.49853 -0.17397,-3.51829 -0.0591,-4.00359 0.0712,-0.30093 0.38553,-0.68019 0.64193,-0.85308 0.48528,-0.32722 1.05444,-0.45147 1.50345,-0.076 0.55301,0.46239 0.1275,2.01862 -0.5828,2.05248 -0.6906,0.0329 -1.51134,3.17358 -1.50345,2.88022 z"
         id="path43"
         sodipodi:nodetypes="ssssss"
         transform="matrix(0.54060624,0,0,0.53916633,56.973714,162.35144)" /><rect
         style="opacity:0.987448;fill:#ffffff;fill-opacity:1;stroke:#000000;stroke-width:0.426;stroke-linecap:round;stroke-dasharray:none;stroke-opacity:1;paint-order:fill markers stroke"
         id="rect3"
         width="17.607128"
         height="26.085323"
         x="115.48285"
         y="213.38634"
         rx="2.0455036"
         ry="2.0455036"
         clip-path="none" /><path
         sodipodi:type="star"
         style="opacity:0.247813;mix-blend-mode:normal;fill:#000000;fill-opacity:1;stroke:#000000;stroke-width:6.22547;stroke-dasharray:none;stroke-opacity:1;paint-order:fill markers stroke;filter:url(#filter41)"
         id="path46"
         inkscape:flatsided="true"
         sodipodi:sides="3"
         sodipodi:cx="163.44737"
         sodipodi:cy="338.13174"
         sodipodi:r1="40.286362"
         sodipodi:r2="20.143181"
         sodipodi:arg1="2.2574179"
         sodipodi:arg2="3.3046154"
         inkscape:rounded="0.07"
         inkscape:randomized="0"
         d="m 137.90872,369.2889 c -3.7776,-3.0964 6.75473,-67.12955 11.32509,-68.85285 4.57036,-1.72331 54.75853,39.41454 53.96577,44.23424 -0.79275,4.8197 -61.51325,27.71501 -65.29086,24.61861 z"
         transform="matrix(-0.03449189,0.06170298,-0.05735436,-0.02499467,156.04408,213.36214)"
         inkscape:transform-center-x="-1.0501384"
         inkscape:transform-center-y="-1.6542722" /><path
         sodipodi:type="star"
         style="opacity:0.987448;fill:#f4f0ff;fill-opacity:1;stroke:#000000;stroke-width:6.22547;stroke-dasharray:none;stroke-opacity:1;paint-order:fill markers stroke"
         id="path47"
         inkscape:flatsided="true"
         sodipodi:sides="3"
         sodipodi:cx="163.44737"
         sodipodi:cy="338.13174"
         sodipodi:r1="40.286362"
         sodipodi:r2="20.143181"
         sodipodi:arg1="2.2574179"
         sodipodi:arg2="3.3046154"
         inkscape:rounded="0.07"
         inkscape:randomized="0"
         d="m 137.90872,369.2889 c -3.7776,-3.0964 6.75473,-67.12955 11.32509,-68.85285 4.57036,-1.72331 54.75853,39.41454 53.96577,44.23424 -0.79275,4.8197 -61.51325,27.71501 -65.29086,24.61861 z"
         transform="matrix(-0.03449189,0.06170298,-0.05735436,-0.02499467,155.67878,213.03426)"
         inkscape:transform-center-x="-1.0501384"
         inkscape:transform-center-y="-1.6542722" /><path
         style="opacity:0.987448;fill:#f4f0ff;fill-opacity:1;stroke:#000000;stroke-width:0.412999;stroke-linecap:round;stroke-dasharray:none;stroke-opacity:1;paint-order:fill markers stroke"
         d="m 133.03489,215.3816 v 0.80656"
         id="path48" /><rect
         style="opacity:0.303207;mix-blend-mode:normal;fill:none;fill-opacity:1;stroke:#2b282b;stroke-width:1.32065;stroke-linecap:round;stroke-dasharray:none;stroke-opacity:1;paint-order:fill markers stroke;filter:url(#filter42)"
         id="rect48"
         width="36.677418"
         height="11.467181"
         x="106.17847"
         y="126.88566"
         rx="3.7837219"
         ry="1.60065"
         transform="matrix(0.54060624,0,0,0.53916633,56.973714,162.35144)" /><path
         style="fill:none;fill-opacity:1;stroke:#2b282b;stroke-width:0.513001;stroke-linecap:round;stroke-dasharray:none;stroke-opacity:1;paint-order:fill markers stroke"
         d="m 114.37805,232.04227 c 0.007,-0.26879 -0.0941,-1.89695 -0.0319,-2.1586 0.0385,-0.16225 0.20841,-0.36674 0.34702,-0.45995 0.26235,-0.17643 0.57005,-0.24342 0.81278,-0.041 0.29896,0.2493 0.0689,1.08837 -0.31507,1.10663 -0.37334,0.0177 -0.81704,1.71108 -0.81277,1.55291 z"
         id="path44"
         sodipodi:nodetypes="ssssss" /><rect
         style="fill:#ffffff;fill-opacity:1;stroke:#2b282b;stroke-width:0.713;stroke-linecap:round;stroke-dasharray:none;stroke-opacity:1;paint-order:fill markers stroke"
         id="rect49"
         width="19.828041"
         height="6.1827178"
         x="114.411"
         y="230.3996"
         rx="2.0455036"
         ry="0.86301655" /><path
         style="fill:none;fill-opacity:1;stroke:#2b282b;stroke-width:0.513001;stroke-linecap:round;stroke-dasharray:none;stroke-opacity:1;paint-order:fill markers stroke"
         d="m 134.19203,231.77278 c 0.063,0.20929 0.27844,-1.12626 -0.18062,-2.00379 -0.0773,-0.14783 -0.14228,-0.21094 -0.28089,-0.30415 -0.26234,-0.17643 -0.61681,-0.20712 -0.85954,-0.005 -0.29896,0.24931 -0.20135,0.74683 0.0457,1.04743 0.23691,0.28832 1.12924,0.77935 1.23664,1.1364 z"
         id="path42"
         sodipodi:nodetypes="sssssss" /><rect
         style="opacity:0.280335;mix-blend-mode:normal;fill:none;fill-opacity:1;stroke:#000000;stroke-width:0.426;stroke-linecap:round;stroke-dasharray:none;stroke-opacity:1;paint-order:fill markers stroke;filter:url(#filter6)"
         id="rect5"
         width="12.428091"
         height="18.421461"
         x="219.13895"
         y="132.18361"
         rx="2.0455024"
         ry="2.0455027"
         clip-path="none"
         transform="matrix(0.89324297,0.44957424,-0.44898727,0.89353815,0.19111969,1.0511583)" /><path
         style="opacity:0.527697;mix-blend-mode:normal;fill:none;fill-opacity:1;stroke:#2b282b;stroke-width:0.950202;stroke-linecap:round;stroke-dasharray:none;stroke-opacity:1;paint-order:fill markers stroke;filter:url(#filter40)"
         d="m 142.48177,129.16224 c 0.11645,0.38818 0.51505,-2.08889 -0.33411,-3.71646 -0.14304,-0.27417 -0.26318,-0.39122 -0.51957,-0.56411 -0.48528,-0.32722 -1.14096,-0.38414 -1.58997,-0.009 -0.55301,0.46239 -0.37245,1.38513 0.0845,1.94267 0.43824,0.53475 2.08885,1.44547 2.28751,2.1077 z"
         id="path45"
         sodipodi:nodetypes="sssssss"
         transform="matrix(0.54060624,0,0,0.53916633,56.973714,162.35144)" /><path
         style="fill:#ffffff;fill-opacity:1;stroke:#000000;stroke-width:0.599999;stroke-linecap:round;stroke-dasharray:none;stroke-opacity:1;paint-order:fill markers stroke"
         d="m 109.89916,213.94707 0.81151,-1.33856 1.3509,0.70043 0.81736,-0.59242 -0.27213,-1.53507 1.66545,-0.33803 0.44916,1.38477 1.11729,0.18824 0.8954,-1.28796 1.38356,0.97718 -0.58425,1.24711 0.66911,0.97474 1.45477,-0.17946 0.34772,1.55209 -1.38845,0.44796 -0.16337,1.0725 1.19093,0.77532 -1.06414,1.47183 -1.19093,-0.77533 -0.87637,0.64252 0.26335,1.64402 -1.72446,0.38813 -0.48281,-1.3765 -1.07535,-0.16296 -0.80225,1.08709 -1.45135,-0.81813 0.70227,-1.34731 -0.71983,-0.89108 -1.44648,0.21303 -0.39746,-1.75346 1.50598,-0.40565 0.16337,-1.0725 z"
         id="path56"
         sodipodi:nodetypes="ccccccccccccccccccccccccccccccccc" /><ellipse
         style="fill:#ffffff;fill-opacity:1;stroke:#000000;stroke-width:0.599999;stroke-linecap:round;stroke-dasharray:none;stroke-opacity:1;paint-order:fill markers stroke"
         id="path57"
         cx="59.541473"
         cy="237.20439"
         rx="2.2327354"
         ry="2.350775"
         transform="matrix(0.97111364,-0.23861747,0.23982045,0.97081726,0,0)" /><path
         style="opacity:0.454811;fill:none;fill-opacity:1;stroke:#000000;stroke-width:0.394528;stroke-linecap:round;stroke-dasharray:none;stroke-opacity:1;paint-order:fill markers stroke;filter:url(#filter63)"
         d="m 96.435414,108.77296 c 0,0 0.327265,1.59844 1.054717,2.55302 0.59425,0.77979 1.435796,1.3602 2.354873,1.67543 1.286166,0.44116 3.261836,-0.0287 3.261836,-0.0287"
         id="path60"
         sodipodi:nodetypes="cssc"
         transform="matrix(0.54060624,0,0,0.53916633,56.973714,162.35144)" /><path
         style="opacity:0.454811;fill:none;fill-opacity:1;stroke:#000000;stroke-width:0.394528;stroke-linecap:round;stroke-dasharray:none;stroke-opacity:1;paint-order:fill markers stroke;filter:url(#filter62)"
         d="m 97.947821,109.16185 c 0,0 0.172918,0.56522 0.722136,1.27794 0.448652,0.58221 1.08401,1.01557 1.777903,1.25093 0.97104,0.32938 1.46555,0.0597 1.46555,0.0597"
         id="path61"
         sodipodi:nodetypes="cssc"
         transform="matrix(0.54060624,0,0,0.53916633,56.973714,162.35144)" /><path
         style="opacity:0.454811;fill:none;fill-opacity:1;stroke:#000000;stroke-width:0.394528;stroke-linecap:round;stroke-dasharray:none;stroke-opacity:1;paint-order:fill markers stroke;filter:url(#filter64)"
         d="m 94.821185,108.20889 c 0,0 0.853022,3.12464 1.740884,4.2969 0.725288,0.95761 1.752403,1.67037 2.874146,2.05748 1.569775,0.54176 4.908905,-0.34635 4.908905,-0.34635"
         id="path62"
         sodipodi:nodetypes="cssc"
         transform="matrix(0.54060624,0,0,0.53916633,56.973714,162.35144)" /><path
         sodipodi:type="star"
         style="opacity:0.0962099;fill:#000000;fill-opacity:1;stroke:#000000;stroke-width:8.64736;stroke-dasharray:none;stroke-opacity:1;paint-order:fill markers stroke;filter:url(#filter58)"
         id="path58"
         inkscape:flatsided="true"
         sodipodi:sides="3"
         sodipodi:cx="163.44737"
         sodipodi:cy="338.13174"
         sodipodi:r1="40.286362"
         sodipodi:r2="20.143181"
         sodipodi:arg1="2.2574179"
         sodipodi:arg2="3.3046154"
         inkscape:rounded="0.07"
         inkscape:randomized="0"
         d="m 137.90872,369.2889 c -3.7776,-3.0964 6.75473,-67.12955 11.32509,-68.85285 4.57036,-1.72331 54.75853,39.41454 53.96577,44.23424 -0.79275,4.8197 -61.51325,27.71501 -65.29086,24.61861 z"
         transform="matrix(-0.04184046,0.02906832,-0.02919229,-0.03423625,162.65589,229.43444)"
         inkscape:transform-center-x="-1.0501384"
         inkscape:transform-center-y="-1.6542722" /><rect
         style="opacity:0.987448;fill:#ffffff;fill-opacity:1;stroke:#000000;stroke-width:0.426;stroke-linecap:round;stroke-dasharray:none;stroke-opacity:1;paint-order:fill markers stroke"
         id="rect4"
         width="12.428091"
         height="18.421461"
         x="219.35347"
         y="132.6104"
         rx="2.0455024"
         ry="2.0455027"
         clip-path="none"
         transform="matrix(0.89324297,0.44957424,-0.44898727,0.89353815,0,0)" /><path
         sodipodi:type="star"
         style="opacity:0.0962099;mix-blend-mode:normal;fill:#000000;fill-opacity:1;stroke:#000000;stroke-width:8.64736;stroke-dasharray:none;stroke-opacity:1;paint-order:fill markers stroke;filter:url(#filter60)"
         id="path53"
         inkscape:flatsided="true"
         sodipodi:sides="3"
         sodipodi:cx="163.44737"
         sodipodi:cy="338.13174"
         sodipodi:r1="40.286362"
         sodipodi:r2="20.143181"
         sodipodi:arg1="2.2574179"
         sodipodi:arg2="3.3046154"
         inkscape:rounded="0.07"
         inkscape:randomized="0"
         d="m 137.90872,369.2889 c -3.7776,-3.0964 6.75473,-67.12955 11.32509,-68.85285 4.57036,-1.72331 54.75853,39.41454 53.96577,44.23424 -0.79275,4.8197 -61.51325,27.71501 -65.29086,24.61861 z"
         transform="matrix(-0.04184046,0.02906832,-0.02919229,-0.03423625,162.50235,229.47635)"
         inkscape:transform-center-x="-1.0501384"
         inkscape:transform-center-y="-1.6542722" /><path
         style="opacity:0.987448;fill:#f4f0ff;fill-opacity:1;stroke:#000000;stroke-width:0.412999;stroke-linecap:round;stroke-dasharray:none;stroke-opacity:1;paint-order:fill markers stroke"
         d="m 146.97859,223.53743 -0.25526,0.52195"
         id="path55" /><path
         sodipodi:type="star"
         style="opacity:0.987448;fill:#f4f0ff;fill-opacity:1;stroke:#000000;stroke-width:8.64736;stroke-dasharray:none;stroke-opacity:1;paint-order:fill markers stroke"
         id="path54"
         inkscape:flatsided="true"
         sodipodi:sides="3"
         sodipodi:cx="163.44737"
         sodipodi:cy="338.13174"
         sodipodi:r1="40.286362"
         sodipodi:r2="20.143181"
         sodipodi:arg1="2.2574179"
         sodipodi:arg2="3.3046154"
         inkscape:rounded="0.07"
         inkscape:randomized="0"
         d="m 137.90872,369.2889 c -3.7776,-3.0964 6.75473,-67.12955 11.32509,-68.85285 4.57036,-1.72331 54.75853,39.41454 53.96577,44.23424 -0.79275,4.8197 -61.51325,27.71501 -65.29086,24.61861 z"
         transform="matrix(-0.04184046,0.02906832,-0.02919229,-0.03423625,162.36982,229.14913)"
         inkscape:transform-center-x="-1.0501384"
         inkscape:transform-center-y="-1.6542722" /><text
         xml:space="preserve"
         style="font-size:5.34904px;line-height:normal;font-family:'Open Sans';-inkscape-font-specification:'Open Sans';text-decoration-color:#000000;opacity:0.987448;fill:#2d2b2d;fill-opacity:1;stroke:none;stroke-width:0.513001;stroke-linecap:round;stroke-dasharray:none;stroke-opacity:1;paint-order:fill markers stroke"
         x="116.2392"
         y="237.76341"
         id="text64"
         transform="scale(1.0118368,0.98830167)"><tspan
           sodipodi:role="line"
           id="tspan64"
           style="font-style:normal;font-variant:normal;font-weight:normal;font-stretch:normal;font-family:Candara;-inkscape-font-specification:Candara;fill:#2d2b2d;fill-opacity:1;stroke:#2b282b;stroke-width:0.513001;stroke-dasharray:none;stroke-opacity:1"
           x="116.2392"
           y="237.76341">CMS</tspan></text><rect
         style="fill:#ffffff;fill-opacity:1;stroke:none;stroke-width:0.4;stroke-linecap:round;stroke-dasharray:none;stroke-opacity:1;paint-order:fill markers stroke"
         id="rect73"
         width="8.3689604"
         height="7.6253524"
         x="134.79988"
         y="230.78603"
         rx="2.0455036"
         ry="0.86301655" /><ellipse
         style="fill:#ffffff;fill-opacity:1;stroke:#000000;stroke-width:0.4;stroke-linecap:round;stroke-dasharray:none;stroke-opacity:1;paint-order:fill markers stroke"
         id="path70"
         cx="138.9819"
         cy="230.71904"
         rx="4.1549163"
         ry="1.1248386" /><ellipse
         style="fill:#ffffff;fill-opacity:1;stroke:#000000;stroke-width:0.4;stroke-linecap:round;stroke-dasharray:none;stroke-opacity:1;paint-order:fill markers stroke"
         id="ellipse70"
         cx="138.9819"
         cy="238.16029"
         rx="4.1549163"
         ry="1.1248386" /><path
         style="fill:#ffffff;fill-opacity:1;stroke:#000000;stroke-width:0.4;stroke-linecap:round;stroke-dasharray:none;stroke-opacity:1;paint-order:fill markers stroke"
         d="m 134.85234,232.03791 v 6.20477"
         id="path71" /><path
         style="fill:#ffffff;fill-opacity:1;stroke:#000000;stroke-width:0.4;stroke-linecap:round;stroke-dasharray:none;stroke-opacity:1;paint-order:fill markers stroke"
         d="m 143.13419,230.84671 v 7.36438"
         id="path72" /><path
         style="fill:#ffffff;fill-opacity:1;stroke:#000000;stroke-width:0.4;stroke-linecap:round;stroke-dasharray:none;stroke-opacity:1;paint-order:fill markers stroke"
         d="m 134.85234,231.36279 v 0.35171"
         id="path73" /><path
         style="opacity:0.437318;fill:#ffffff;fill-opacity:1;stroke:#000000;stroke-width:0.4;stroke-linecap:round;stroke-dasharray:none;stroke-opacity:1;paint-order:fill markers stroke"
         id="ellipse74"
         sodipodi:type="arc"
         sodipodi:cx="138.8358"
         sodipodi:cy="232.64218"
         sodipodi:rx="4.1549163"
         sodipodi:ry="1.1248386"
         sodipodi:start="1.8939778"
         sodipodi:end="2.8397352"
         sodipodi:open="true"
         sodipodi:arc-type="arc"
         d="m 137.51626,233.70879 a 4.1549163,1.1248386 0 0 1 -2.64752,-0.7322" /><path
         style="fill:#ffffff;fill-opacity:1;stroke:#000000;stroke-width:0.4;stroke-linecap:round;stroke-dasharray:none;stroke-opacity:1;paint-order:fill markers stroke"
         id="path74"
         sodipodi:type="arc"
         sodipodi:cx="138.78413"
         sodipodi:cy="233.10588"
         sodipodi:rx="4.1549163"
         sodipodi:ry="1.1248386"
         sodipodi:start="1.8939778"
         sodipodi:end="2.8397352"
         sodipodi:open="true"
         sodipodi:arc-type="arc"
         d="m 137.4646,234.17249 a 4.1549163,1.1248386 0 0 1 -2.64752,-0.7322" /><path
         style="opacity:0.437318;fill:#ffffff;fill-opacity:1;stroke:#000000;stroke-width:0.4;stroke-linecap:round;stroke-dasharray:none;stroke-opacity:1;paint-order:fill markers stroke"
         id="path75"
         sodipodi:type="arc"
         sodipodi:cx="138.8358"
         sodipodi:cy="233.67264"
         sodipodi:rx="4.1549163"
         sodipodi:ry="1.1248386"
         sodipodi:start="1.8939778"
         sodipodi:end="2.8397352"
         sodipodi:open="true"
         sodipodi:arc-type="arc"
         d="m 137.51626,234.73924 a 4.1549163,1.1248386 0 0 1 -2.64752,-0.73219" /><path
         style="opacity:0.437318;fill:#ffffff;fill-opacity:1;stroke:#000000;stroke-width:0.4;stroke-linecap:round;stroke-dasharray:none;stroke-opacity:1;paint-order:fill markers stroke"
         id="path76"
         sodipodi:type="arc"
         sodipodi:cx="138.8358"
         sodipodi:cy="234.23938"
         sodipodi:rx="4.1549163"
         sodipodi:ry="1.1248386"
         sodipodi:start="1.8939778"
         sodipodi:end="2.8397352"
         sodipodi:open="true"
         sodipodi:arc-type="arc"
         d="m 137.51626,235.30599 a 4.1549163,1.1248386 0 0 1 -2.64752,-0.7322" /><path
         style="fill:none;fill-opacity:1;stroke:#000000;stroke-width:0.4;stroke-linecap:round;stroke-dasharray:none;stroke-opacity:1;marker-end:url(#marker79);paint-order:fill markers stroke"
         d="m 67.378894,209.52363 c 0,0 -1.098723,-3.70823 -2.613086,-4.03989 -2.331868,-0.5107 -5.251931,-1.50104 -5.04256,-3.23722 0.09915,-0.82222 1.922682,-1.14872 2.434256,-0.49742 1.005586,1.28023 -0.455592,4.3994 -2.083443,4.41715 -2.657943,0.029 -3.697638,-3.73903 -4.596523,-6.44692 -1.185823,-3.57229 -0.570392,-4.27351 -1.932945,-8.6453"
         id="path78"
         sodipodi:nodetypes="csssssc" /><path
         style="fill:none;fill-opacity:1;stroke:#000000;stroke-width:0.4;stroke-linecap:round;stroke-dasharray:none;stroke-opacity:1;marker-end:url(#marker79);paint-order:fill markers stroke"
         d="m 60.490496,239.44106 c -2.862381,0.57337 -16.010643,4.17915 -7.407155,-4.0412 4.053053,-3.87255 0.05086,8.92285 -0.87095,10.24556 -4.535211,6.50768 -11.875966,0.0354 -16.67177,7.37914"
         id="path80"
         sodipodi:nodetypes="cssc" /><path
         style="fill:none;fill-opacity:1;stroke:#000000;stroke-width:0.4;stroke-linecap:round;stroke-dasharray:none;stroke-opacity:1;marker-end:url(#marker79);paint-order:fill markers stroke"
         d="m 57.357843,222.88699 c 0,0 -2.686274,-2.13284 -4.44152,-2.87408 -1.387209,-0.58582 -8.793933,-1.82583 -8.590668,-1.02298 0.219597,0.86741 2.285377,2.0745 2.958578,2.18747 1.087882,0.18255 -0.05809,-3.6092 -0.807926,-4.27932 -1.539375,-1.37577 -9.309704,-2.14607 -11.721617,-3.18617"
         id="path81"
         sodipodi:nodetypes="cssssc" /><path
         style="fill:none;fill-opacity:1;stroke:#000000;stroke-width:0.4;stroke-linecap:round;stroke-dasharray:none;stroke-opacity:1;marker-end:url(#marker79);paint-order:fill markers stroke"
         d="m 150.04579,237.47596 c 0,0 8.04054,1.66481 7.40443,4.47821 -0.18265,0.8078 -2.02999,0.94627 -2.47235,0.24611 -0.86952,-1.37627 0.90271,-4.32982 2.52385,-4.18117 3.32866,0.30523 1.59386,6.66271 3.53442,9.38436 1.67579,2.35029 6.66667,5.52674 6.66667,5.52674"
         id="path82"
         sodipodi:nodetypes="cssssc" /><path
         style="fill:none;fill-opacity:1;stroke:#000000;stroke-width:0.4;stroke-linecap:round;stroke-dasharray:none;stroke-opacity:1;marker-end:url(#marker79);paint-order:fill markers stroke"
         d="m 145.5559,211.50945 c 2.42283,-1.62845 13.17878,-10.00629 8.39105,0.88737 -2.25547,5.13195 -3.47298,-8.21937 -3.1297,-9.79463 1.68889,-7.7502 10.95205,-4.59264 12.56056,-13.21483"
         id="path83"
         sodipodi:nodetypes="cssc" /><path
         style="fill:none;fill-opacity:1;stroke:#000000;stroke-width:0.4;stroke-linecap:round;stroke-dasharray:none;stroke-opacity:1;marker-end:url(#marker79);paint-order:fill markers stroke"
         d="m 152.17846,228.18878 c 0,0 2.83706,1.74919 6.22827,0.22217 0.80384,-0.36196 7.29297,-3.52563 6.71818,-4.12186 -0.62101,-0.64419 -2.24305,-1.24518 -2.8836,-1.00927 -1.03513,0.38121 1.84103,3.10488 2.82453,3.3147 2.01911,0.43083 8.37746,-2.17756 10.98763,-2.47108"
         id="path84"
         sodipodi:nodetypes="cssssc" /><text
         xml:space="preserve"
         style="font-style:normal;font-variant:normal;font-weight:normal;font-stretch:normal;font-size:8.11069px;line-height:normal;font-family:Candara;-inkscape-font-specification:Candara;text-align:center;text-decoration-color:#000000;text-anchor:middle;fill:#000000;fill-opacity:1;stroke:#000000;stroke-width:0.600003;stroke-linecap:round;stroke-dasharray:none;stroke-opacity:1;paint-order:fill markers stroke"
         x="39.803745"
         y="189.25984"
         id="text84"
         transform="scale(1.0160341,0.98421894)"><tspan
           sodipodi:role="line"
           id="tspan84"
           style="fill:#000000;fill-opacity:1;stroke:#000000;stroke-width:0.599999;stroke-opacity:1"
           x="39.803745"
           y="189.25984">Used 4</tspan></text><text
         xml:space="preserve"
         style="font-style:normal;font-variant:normal;font-weight:normal;font-stretch:normal;font-size:8.11069px;line-height:normal;font-family:Candara;-inkscape-font-specification:Candara;text-align:center;text-decoration-color:#000000;text-anchor:middle;fill:#000000;fill-opacity:1;stroke:#000000;stroke-width:0.600003;stroke-linecap:round;stroke-dasharray:none;stroke-opacity:1;paint-order:fill markers stroke"
         x="16.196743"
         y="218.67873"
         id="text85"
         transform="scale(1.0160341,0.98421894)"><tspan
           sodipodi:role="line"
           id="tspan85"
           style="fill:#000000;fill-opacity:1;stroke:#000000;stroke-width:0.599999;stroke-opacity:1"
           x="16.196743"
           y="218.67873">Used 4</tspan></text><text
         xml:space="preserve"
         style="font-style:normal;font-variant:normal;font-weight:normal;font-stretch:normal;font-size:8.11069px;line-height:normal;font-family:Candara;-inkscape-font-specification:Candara;text-align:center;text-decoration-color:#000000;text-anchor:middle;fill:#000000;fill-opacity:1;stroke:#000000;stroke-width:0.600003;stroke-linecap:round;stroke-dasharray:none;stroke-opacity:1;paint-order:fill markers stroke"
         x="20.260351"
         y="266.45139"
         id="text86"
         transform="scale(1.0160341,0.98421894)"><tspan
           sodipodi:role="line"
           id="tspan86"
           style="fill:#000000;fill-opacity:1;stroke:#000000;stroke-width:0.599999;stroke-opacity:1"
           x="20.260351"
           y="266.45139">Used 4</tspan></text><text
         xml:space="preserve"
         style="font-style:normal;font-variant:normal;font-weight:normal;font-stretch:normal;font-size:8.11069px;line-height:normal;font-family:Candara;-inkscape-font-specification:Candara;text-align:center;text-decoration-color:#000000;text-anchor:middle;fill:#000000;fill-opacity:1;stroke:#000000;stroke-width:0.600003;stroke-linecap:round;stroke-dasharray:none;stroke-opacity:1;paint-order:fill markers stroke"
         x="163.10567"
         y="187.60927"
         id="text87"
         transform="scale(1.0160341,0.98421894)"><tspan
           sodipodi:role="line"
           id="tspan87"
           style="fill:#000000;fill-opacity:1;stroke:#000000;stroke-width:0.599999;stroke-opacity:1"
           x="163.10567"
           y="187.60927">Used 4</tspan></text><text
         xml:space="preserve"
         style="font-style:normal;font-variant:normal;font-weight:normal;font-stretch:normal;font-size:8.11069px;line-height:normal;font-family:Candara;-inkscape-font-specification:Candara;text-align:center;text-decoration-color:#000000;text-anchor:middle;fill:#000000;fill-opacity:1;stroke:#000000;stroke-width:0.600003;stroke-linecap:round;stroke-dasharray:none;stroke-opacity:1;paint-order:fill markers stroke"
         x="190.5688"
         y="229.35886"
         id="text88"
         transform="scale(1.0160341,0.98421894)"><tspan
           sodipodi:role="line"
           id="tspan88"
           style="fill:#000000;fill-opacity:1;stroke:#000000;stroke-width:0.599999;stroke-opacity:1"
           x="190.5688"
           y="229.35886">Used 4</tspan></text><text
         xml:space="preserve"
         style="font-style:normal;font-variant:normal;font-weight:normal;font-stretch:normal;font-size:8.11069px;line-height:normal;font-family:Candara;-inkscape-font-specification:Candara;text-align:center;text-decoration-color:#000000;text-anchor:middle;fill:#000000;fill-opacity:1;stroke:#000000;stroke-width:0.600003;stroke-linecap:round;stroke-dasharray:none;stroke-opacity:1;paint-order:fill markers stroke"
         x="181.91603"
         y="261.39923"
         id="text89"
         transform="scale(1.0160341,0.98421894)"><tspan
           sodipodi:role="line"
           id="tspan89"
           style="fill:#000000;fill-opacity:1;stroke:#000000;stroke-width:0.599999;stroke-opacity:1"
           x="181.91603"
           y="261.39923">Used 4</tspan></text></g></g></svg>
