<?xml version="1.0" encoding="UTF-8" standalone="no"?>
<!-- Created with Inkscape (http://www.inkscape.org/) -->

<svg
   width="287.9361mm"
   height="90.891716mm"
   viewBox="0 0 287.9361 90.891716"
   version="1.1"
   id="svg1"
   xml:space="preserve"
   inkscape:export-filename="ELIXIR-TrP-Bioschemas\docs\assets\images\HTMLvsCMS.svg"
   inkscape:export-xdpi="96"
   inkscape:export-ydpi="96"
   inkscape:version="1.3.2 (091e20e, 2023-11-25, custom)"
   sodipodi:docname="illustrations.svg"
   xmlns:inkscape="http://www.inkscape.org/namespaces/inkscape"
   xmlns:sodipodi="http://sodipodi.sourceforge.net/DTD/sodipodi-0.dtd"
   xmlns="http://www.w3.org/2000/svg"
   xmlns:svg="http://www.w3.org/2000/svg"><sodipodi:namedview
     id="namedview1"
     pagecolor="#ffffff"
     bordercolor="#000000"
     borderopacity="0.25"
     inkscape:showpageshadow="2"
     inkscape:pageopacity="0.0"
     inkscape:pagecheckerboard="0"
     inkscape:deskcolor="#d1d1d1"
     inkscape:document-units="mm"
     inkscape:zoom="0.97890839"
     inkscape:cx="435.17862"
     inkscape:cy="551.12409"
     inkscape:window-width="1920"
     inkscape:window-height="991"
     inkscape:window-x="-9"
     inkscape:window-y="-9"
     inkscape:window-maximized="1"
     inkscape:current-layer="layer1" /><defs
     id="defs1"><marker
       style="overflow:visible"
       id="marker79"
       refX="0"
       refY="0"
       orient="auto-start-reverse"
       inkscape:stockid="Stylized triangle arrow"
       markerWidth="1"
       markerHeight="1"
       viewBox="0 0 1 1"
       inkscape:isstock="true"
       inkscape:collect="always"
       preserveAspectRatio="xMidYMid"><path
         transform="scale(0.5)"
         style="fill:context-stroke;fill-rule:evenodd;stroke:context-stroke;stroke-width:1pt"
         d="m 6,0 c -3,1 -7,3 -9,5 0,0 0,-4 2,-5 -2,-1 -2,-5 -2,-5 2,2 6,4 9,5 z"
         id="path79" /></marker><filter
       inkscape:collect="always"
       style="color-interpolation-filters:sRGB"
       id="filter39"
       x="-0.46044188"
       y="-0.21605564"
       width="1.9206369"
       height="1.431007"><feGaussianBlur
         inkscape:collect="always"
         stdDeviation="0.27359934"
         id="feGaussianBlur39" /></filter><filter
       inkscape:collect="always"
       style="color-interpolation-filters:sRGB"
       id="filter40"
       x="-0.40009109"
       y="-0.26017276"
       width="1.8003613"
       height="1.5196513"><feGaussianBlur
         inkscape:collect="always"
         stdDeviation="0.34296566"
         id="feGaussianBlur40" /></filter><filter
       inkscape:collect="always"
       style="color-interpolation-filters:sRGB"
       id="filter41"
       x="-0.11784824"
       y="-0.11351806"
       width="1.2360505"
       height="1.2261707"><feGaussianBlur
         inkscape:collect="always"
         stdDeviation="1.9794618"
         id="feGaussianBlur41" /></filter><filter
       inkscape:collect="always"
       style="color-interpolation-filters:sRGB"
       id="filter42"
       x="-0.035678011"
       y="-0.11411499"
       width="1.071356"
       height="1.22823"><feGaussianBlur
         inkscape:collect="always"
         stdDeviation="0.2766343"
         id="feGaussianBlur42" /></filter><filter
       inkscape:collect="always"
       style="color-interpolation-filters:sRGB"
       id="filter58"
       x="-0.064890506"
       y="-0.063206843"
       width="1.1302486"
       height="1.1253451"><feGaussianBlur
         inkscape:collect="always"
         stdDeviation="0.14248357"
         id="feGaussianBlur58" /></filter><filter
       inkscape:collect="always"
       style="color-interpolation-filters:sRGB"
       id="filter60"
       x="-0.064890506"
       y="-0.063206843"
       width="1.1302486"
       height="1.1253451"><feGaussianBlur
         inkscape:collect="always"
         stdDeviation="0.14248357"
         id="feGaussianBlur60" /></filter><filter
       inkscape:collect="always"
       style="color-interpolation-filters:sRGB"
       id="filter62"
       x="-0.20109875"
       y="-0.29618158"
       width="1.4021975"
       height="1.5923086"><feGaussianBlur
         inkscape:collect="always"
         stdDeviation="0.18680291"
         id="feGaussianBlur62" /></filter><filter
       inkscape:collect="always"
       style="color-interpolation-filters:sRGB"
       id="filter63"
       x="-0.11953591"
       y="-0.18053255"
       width="1.2390718"
       height="1.3614906"><feGaussianBlur
         inkscape:collect="always"
         stdDeviation="0.18680291"
         id="feGaussianBlur63" /></filter><filter
       inkscape:collect="always"
       style="color-interpolation-filters:sRGB"
       id="filter64"
       x="-0.08373377"
       y="-0.1221339"
       width="1.1674675"
       height="1.2452529"><feGaussianBlur
         inkscape:collect="always"
         stdDeviation="0.18680291"
         id="feGaussianBlur64" /></filter><filter
       inkscape:collect="always"
       style="color-interpolation-filters:sRGB"
       id="filter6"
       x="-0.091953025"
       y="-0.06203637"
       width="1.1839061"
       height="1.1240727"><feGaussianBlur
         inkscape:collect="always"
         stdDeviation="0.39762523"
         id="feGaussianBlur6" /></filter></defs><g
     inkscape:label="Layer 1"
     inkscape:groupmode="layer"
     id="layer1"
     transform="translate(39.90339,-74.768423)"><g
       id="g66"
       transform="translate(1.4907587)"><g
         id="g1"
         style="stroke-width:0.3;stroke-dasharray:none"
         inkscape:export-filename="ELIXIR-TrP-Bioschemas\docs\assets\images\webpages_2_applyBioschemas.png"
         inkscape:export-xdpi="96"
         inkscape:export-ydpi="96"><path
           style="fill:none;fill-opacity:1;stroke:#000000;stroke-width:0.3;stroke-linecap:round;stroke-dasharray:none;stroke-opacity:1;paint-order:fill markers stroke"
           d="m 44.158802,124.47001 c 0.06295,0.20929 0.27844,-1.12626 -0.180621,-2.00379 -0.07733,-0.14783 -0.142276,-0.21094 -0.280887,-0.30415 -0.262344,-0.17643 -0.616809,-0.20712 -0.859547,-0.005 -0.298957,0.24931 -0.201346,0.74683 0.04566,1.04743 0.236915,0.28832 1.129247,0.77935 1.236645,1.1364 z"
           id="path38"
           sodipodi:nodetypes="sssssss" /><path
           style="opacity:0.411079;mix-blend-mode:normal;fill:none;fill-opacity:1;stroke:#000000;stroke-width:0.555673;stroke-linecap:round;stroke-dasharray:none;stroke-opacity:1;paint-order:fill markers stroke;filter:url(#filter39)"
           d="m 9.4937275,129.5945 c 0.013402,-0.49853 -0.1739717,-3.51829 -0.059125,-4.00359 0.071215,-0.30093 0.3855267,-0.68019 0.6419245,-0.85308 0.485279,-0.32722 1.054446,-0.45147 1.503456,-0.076 0.553004,0.46239 0.127502,2.01862 -0.582804,2.05248 -0.690599,0.0329 -1.5113381,3.17358 -1.5034515,2.88022 z"
           id="path39"
           sodipodi:nodetypes="ssssss"
           transform="matrix(0.54060624,0,0,0.53916633,19.404943,55.130647)" /><path
           style="fill:none;fill-opacity:1;stroke:#000000;stroke-width:0.3;stroke-linecap:round;stroke-dasharray:none;stroke-opacity:1;paint-order:fill markers stroke"
           d="m 24.345532,124.82148 c 0.0072,-0.26879 -0.09405,-1.89695 -0.03196,-2.1586 0.0385,-0.16225 0.208418,-0.36674 0.347028,-0.45995 0.262345,-0.17643 0.57004,-0.24342 0.812778,-0.041 0.298957,0.2493 0.06893,1.08837 -0.315067,1.10663 -0.373343,0.0177 -0.817039,1.71108 -0.812776,1.55291 z"
           id="path37"
           sodipodi:nodetypes="ssssss" /><path
           style="opacity:0.527697;mix-blend-mode:normal;fill:none;fill-opacity:1;stroke:#000000;stroke-width:0.555673;stroke-linecap:round;stroke-dasharray:none;stroke-opacity:1;paint-order:fill markers stroke;filter:url(#filter40)"
           d="m 45.435644,129.16224 c 0.11645,0.38818 0.515052,-2.08889 -0.334108,-3.71646 -0.143043,-0.27417 -0.263179,-0.39122 -0.519577,-0.56411 -0.485278,-0.32722 -1.140959,-0.38414 -1.589969,-0.009 -0.553004,0.46239 -0.372445,1.38513 0.08447,1.94267 0.438239,0.53475 2.088853,1.44547 2.287516,2.1077 z"
           id="path40"
           sodipodi:nodetypes="sssssss"
           transform="matrix(0.54060624,0,0,0.53916633,19.40423,55.04867)" /><rect
           style="opacity:0.987448;fill:#ffffff;fill-opacity:1;stroke:#000000;stroke-width:0.3;stroke-linecap:round;stroke-dasharray:none;stroke-opacity:1;paint-order:fill markers stroke"
           id="rect28"
           width="17.607128"
           height="26.085323"
           x="25.259892"
           y="106.37025"
           rx="2.0455036"
           ry="2.0455036"
           clip-path="none" /><path
           sodipodi:type="star"
           style="opacity:0.247813;mix-blend-mode:normal;fill:#000000;fill-opacity:1;stroke:#000000;stroke-width:4.52213;stroke-dasharray:none;stroke-opacity:1;paint-order:fill markers stroke;filter:url(#filter41)"
           id="path41"
           inkscape:flatsided="true"
           sodipodi:sides="3"
           sodipodi:cx="163.44737"
           sodipodi:cy="338.13174"
           sodipodi:r1="40.286362"
           sodipodi:r2="20.143181"
           sodipodi:arg1="2.2574179"
           sodipodi:arg2="3.3046154"
           inkscape:rounded="0.07"
           inkscape:randomized="0"
           d="m 137.90872,369.2889 c -3.7776,-3.0964 6.75473,-67.12955 11.32509,-68.85285 4.57036,-1.72331 54.75853,39.41454 53.96577,44.23424 -0.79275,4.8197 -61.51325,27.71501 -65.29086,24.61861 z"
           transform="matrix(-0.03449189,0.06170298,-0.05735436,-0.02499467,66.010842,106.05937)"
           inkscape:transform-center-x="-1.0501384"
           inkscape:transform-center-y="-1.6542722" /><path
           sodipodi:type="star"
           style="opacity:0.987448;fill:#f4f0ff;fill-opacity:1;stroke:#000000;stroke-width:4.52213;stroke-dasharray:none;stroke-opacity:1;paint-order:fill markers stroke"
           id="path34"
           inkscape:flatsided="true"
           sodipodi:sides="3"
           sodipodi:cx="163.44737"
           sodipodi:cy="338.13174"
           sodipodi:r1="40.286362"
           sodipodi:r2="20.143181"
           sodipodi:arg1="2.2574179"
           sodipodi:arg2="3.3046154"
           inkscape:rounded="0.07"
           inkscape:randomized="0"
           d="m 137.90872,369.2889 c -3.7776,-3.0964 6.75473,-67.12955 11.32509,-68.85285 4.57036,-1.72331 54.75853,39.41454 53.96577,44.23424 -0.79275,4.8197 -61.51325,27.71501 -65.29086,24.61861 z"
           transform="matrix(-0.03449189,0.06170298,-0.05735436,-0.02499467,65.645552,105.73149)"
           inkscape:transform-center-x="-1.0501384"
           inkscape:transform-center-y="-1.6542722" /><text
           xml:space="preserve"
           style="font-size:9.52299px;line-height:normal;font-family:'Open Sans';-inkscape-font-specification:'Open Sans';text-decoration-color:#000000;opacity:0.987448;fill:#2d2b2d;fill-opacity:1;stroke:#000000;stroke-width:0.3;stroke-linecap:round;stroke-dasharray:none;stroke-opacity:1;paint-order:fill markers stroke"
           x="27.555605"
           y="117.89559"
           id="text37"
           transform="scale(1.0013344,0.99866737)"><tspan
             sodipodi:role="line"
             id="tspan37"
             style="font-style:normal;font-variant:normal;font-weight:normal;font-stretch:normal;font-family:Candara;-inkscape-font-specification:Candara;fill:#2d2b2d;fill-opacity:1;stroke:#000000;stroke-width:0.3;stroke-dasharray:none;stroke-opacity:1"
             x="27.555605"
             y="117.89559">&lt;/&gt;</tspan></text><rect
           style="opacity:0.303207;mix-blend-mode:normal;fill:none;fill-opacity:1;stroke:#000000;stroke-width:0.555673;stroke-linecap:round;stroke-dasharray:none;stroke-opacity:1;paint-order:fill markers stroke;filter:url(#filter42)"
           id="rect41"
           width="36.677418"
           height="11.467181"
           x="9.1323452"
           y="126.88566"
           rx="3.7837219"
           ry="1.60065"
           transform="matrix(0.54060624,0,0,0.53916633,19.40423,55.04867)" /><rect
           style="fill:#ffffff;fill-opacity:1;stroke:#000000;stroke-width:0.3;stroke-linecap:round;stroke-dasharray:none;stroke-opacity:1;paint-order:fill markers stroke"
           id="rect37"
           width="19.828041"
           height="6.1827178"
           x="24.377762"
           y="123.09686"
           rx="2.0455036"
           ry="0.86301655" /><text
           xml:space="preserve"
           style="font-size:5.34904px;line-height:normal;font-family:'Open Sans';-inkscape-font-specification:'Open Sans';text-decoration-color:#000000;opacity:0.987448;fill:#2d2b2d;fill-opacity:1;stroke:#000000;stroke-width:0.3;stroke-linecap:round;stroke-dasharray:none;stroke-opacity:1;paint-order:fill markers stroke"
           x="26.78825"
           y="129.33797"
           id="text41"
           transform="scale(1.0118368,0.98830167)"><tspan
             sodipodi:role="line"
             id="tspan41"
             style="font-style:normal;font-variant:normal;font-weight:normal;font-stretch:normal;font-family:Candara;-inkscape-font-specification:Candara;fill:#2d2b2d;fill-opacity:1;stroke:#000000;stroke-width:0.3;stroke-dasharray:none;stroke-opacity:1"
             x="26.78825"
             y="129.33797">HTML</tspan></text></g><text
         xml:space="preserve"
         style="font-style:normal;font-variant:normal;font-weight:normal;font-stretch:normal;font-size:4.95584px;line-height:normal;font-family:Candara;-inkscape-font-specification:Candara;text-decoration-color:#000000;fill:#000000;fill-opacity:1;stroke:#2d2b2d;stroke-width:0.208154;stroke-linecap:round;stroke-dasharray:none;stroke-opacity:1;paint-order:fill markers stroke"
         x="23.422979"
         y="144.21544"
         id="text42"
         transform="scale(1.0062555,0.99378339)"><tspan
           sodipodi:role="line"
           id="tspan42"
           style="fill:#000000;fill-opacity:1;stroke:#2d2b2d;stroke-width:0.208154;stroke-dasharray:none;stroke-opacity:1"
           x="23.422979"
           y="144.21544">static pages</tspan></text><text
         xml:space="preserve"
         style="font-style:normal;font-variant:normal;font-weight:normal;font-stretch:normal;font-size:9.17943px;line-height:normal;font-family:Candara;-inkscape-font-specification:Candara;text-decoration-color:#000000;white-space:pre;inline-size:94.4765;display:inline;fill:#000000;fill-opacity:1;stroke:#2d2b2d;stroke-width:0.385551;stroke-linecap:round;stroke-dasharray:none;stroke-opacity:1;paint-order:fill markers stroke"
         x="189.7041"
         y="156.25581"
         id="text65"
         transform="matrix(0.54326306,0,0,0.53652955,31.798082,53.156677)"><tspan
           x="189.7041"
           y="156.25581"
           id="tspan3"><tspan
             style="text-align:center;text-anchor:middle"
             id="tspan1">Content 
</tspan></tspan><tspan
           x="189.7041"
           y="167.7301"
           id="tspan9"><tspan
             style="text-align:center;text-anchor:middle"
             id="tspan4">managemant system</tspan></tspan></text><g
         id="g2"
         style="stroke-width:0.377;stroke-dasharray:none"><path
           style="opacity:0.411079;mix-blend-mode:normal;fill:none;fill-opacity:1;stroke:#2b282b;stroke-width:0.698296;stroke-linecap:round;stroke-dasharray:none;stroke-opacity:1;paint-order:fill markers stroke;filter:url(#filter39)"
           d="m 106.53985,129.5945 c 0.0134,-0.49853 -0.17397,-3.51829 -0.0591,-4.00359 0.0712,-0.30093 0.38553,-0.68019 0.64193,-0.85308 0.48528,-0.32722 1.05444,-0.45147 1.50345,-0.076 0.55301,0.46239 0.1275,2.01862 -0.5828,2.05248 -0.6906,0.0329 -1.51134,3.17358 -1.50345,2.88022 z"
           id="path43"
           sodipodi:nodetypes="ssssss"
           transform="matrix(0.54060624,0,0,0.53916633,92.380926,51.534977)" /><rect
           style="opacity:0.987448;fill:#ffffff;fill-opacity:1;stroke:#000000;stroke-width:0.377;stroke-linecap:round;stroke-dasharray:none;stroke-opacity:1;paint-order:fill markers stroke"
           id="rect3"
           width="17.607128"
           height="26.085323"
           x="150.89008"
           y="102.56988"
           rx="2.0455036"
           ry="2.0455036"
           clip-path="none" /><path
           sodipodi:type="star"
           style="opacity:0.247813;mix-blend-mode:normal;fill:#000000;fill-opacity:1;stroke:#000000;stroke-width:5.68281;stroke-dasharray:none;stroke-opacity:1;paint-order:fill markers stroke;filter:url(#filter41)"
           id="path46"
           inkscape:flatsided="true"
           sodipodi:sides="3"
           sodipodi:cx="163.44737"
           sodipodi:cy="338.13174"
           sodipodi:r1="40.286362"
           sodipodi:r2="20.143181"
           sodipodi:arg1="2.2574179"
           sodipodi:arg2="3.3046154"
           inkscape:rounded="0.07"
           inkscape:randomized="0"
           d="m 137.90872,369.2889 c -3.7776,-3.0964 6.75473,-67.12955 11.32509,-68.85285 4.57036,-1.72331 54.75853,39.41454 53.96577,44.23424 -0.79275,4.8197 -61.51325,27.71501 -65.29086,24.61861 z"
           transform="matrix(-0.03449189,0.06170298,-0.05735436,-0.02499467,191.45129,102.54568)"
           inkscape:transform-center-x="-1.0501384"
           inkscape:transform-center-y="-1.6542722" /><path
           sodipodi:type="star"
           style="opacity:0.987448;fill:#f4f0ff;fill-opacity:1;stroke:#000000;stroke-width:5.68281;stroke-dasharray:none;stroke-opacity:1;paint-order:fill markers stroke"
           id="path47"
           inkscape:flatsided="true"
           sodipodi:sides="3"
           sodipodi:cx="163.44737"
           sodipodi:cy="338.13174"
           sodipodi:r1="40.286362"
           sodipodi:r2="20.143181"
           sodipodi:arg1="2.2574179"
           sodipodi:arg2="3.3046154"
           inkscape:rounded="0.07"
           inkscape:randomized="0"
           d="m 137.90872,369.2889 c -3.7776,-3.0964 6.75473,-67.12955 11.32509,-68.85285 4.57036,-1.72331 54.75853,39.41454 53.96577,44.23424 -0.79275,4.8197 -61.51325,27.71501 -65.29086,24.61861 z"
           transform="matrix(-0.03449189,0.06170298,-0.05735436,-0.02499467,191.08599,102.2178)"
           inkscape:transform-center-x="-1.0501384"
           inkscape:transform-center-y="-1.6542722" /><path
           style="opacity:0.987448;fill:#f4f0ff;fill-opacity:1;stroke:#000000;stroke-width:0.377;stroke-linecap:round;stroke-dasharray:none;stroke-opacity:1;paint-order:fill markers stroke"
           d="m 168.4421,104.56514 v 0.80656"
           id="path48" /><rect
           style="opacity:0.303207;mix-blend-mode:normal;fill:none;fill-opacity:1;stroke:#2b282b;stroke-width:0.698296;stroke-linecap:round;stroke-dasharray:none;stroke-opacity:1;paint-order:fill markers stroke;filter:url(#filter42)"
           id="rect48"
           width="36.677418"
           height="11.467181"
           x="106.17847"
           y="126.88566"
           rx="3.7837219"
           ry="1.60065"
           transform="matrix(0.54060624,0,0,0.53916633,92.380926,51.534977)" /><path
           style="fill:none;fill-opacity:1;stroke:#2b282b;stroke-width:0.377;stroke-linecap:round;stroke-dasharray:none;stroke-opacity:1;paint-order:fill markers stroke"
           d="m 149.78526,121.22581 c 0.007,-0.26879 -0.0941,-1.89695 -0.0319,-2.1586 0.0385,-0.16225 0.20841,-0.36674 0.34702,-0.45995 0.26235,-0.17643 0.57005,-0.24342 0.81278,-0.041 0.29896,0.2493 0.0689,1.08837 -0.31507,1.10663 -0.37334,0.0177 -0.81704,1.71108 -0.81277,1.55291 z"
           id="path44"
           sodipodi:nodetypes="ssssss" /><rect
           style="fill:#ffffff;fill-opacity:1;stroke:#2b282b;stroke-width:0.377;stroke-linecap:round;stroke-dasharray:none;stroke-opacity:1;paint-order:fill markers stroke"
           id="rect49"
           width="19.828041"
           height="6.1827178"
           x="149.81822"
           y="119.58314"
           rx="2.0455036"
           ry="0.86301655" /><path
           style="fill:none;fill-opacity:1;stroke:#2b282b;stroke-width:0.377;stroke-linecap:round;stroke-dasharray:none;stroke-opacity:1;paint-order:fill markers stroke"
           d="m 169.59924,120.95632 c 0.063,0.20929 0.27844,-1.12626 -0.18062,-2.00379 -0.0773,-0.14783 -0.14228,-0.21094 -0.28089,-0.30415 -0.26234,-0.17643 -0.61681,-0.20712 -0.85954,-0.005 -0.29896,0.24931 -0.20135,0.74683 0.0457,1.04743 0.23691,0.28832 1.12924,0.77935 1.23664,1.1364 z"
           id="path42"
           sodipodi:nodetypes="sssssss" /><rect
           style="opacity:0.280335;mix-blend-mode:normal;fill:none;fill-opacity:1;stroke:#000000;stroke-width:0.377;stroke-linecap:round;stroke-dasharray:none;stroke-opacity:1;paint-order:fill markers stroke;filter:url(#filter6)"
           id="rect5"
           width="12.428091"
           height="18.421461"
           x="219.13895"
           y="132.18361"
           rx="2.0455024"
           ry="2.0455027"
           clip-path="none"
           transform="matrix(0.89324297,0.44957424,-0.44898727,0.89353815,35.598331,-109.7653)" /><path
           style="opacity:0.527697;mix-blend-mode:normal;fill:none;fill-opacity:1;stroke:#2b282b;stroke-width:0.698296;stroke-linecap:round;stroke-dasharray:none;stroke-opacity:1;paint-order:fill markers stroke;filter:url(#filter40)"
           d="m 142.48177,129.16224 c 0.11645,0.38818 0.51505,-2.08889 -0.33411,-3.71646 -0.14304,-0.27417 -0.26318,-0.39122 -0.51957,-0.56411 -0.48528,-0.32722 -1.14096,-0.38414 -1.58997,-0.009 -0.55301,0.46239 -0.37245,1.38513 0.0845,1.94267 0.43824,0.53475 2.08885,1.44547 2.28751,2.1077 z"
           id="path45"
           sodipodi:nodetypes="sssssss"
           transform="matrix(0.54060624,0,0,0.53916633,92.380926,51.534977)" /><path
           style="fill:#ffffff;fill-opacity:1;stroke:#000000;stroke-width:0.377;stroke-linecap:round;stroke-dasharray:none;stroke-opacity:1;paint-order:fill markers stroke"
           d="m 145.30637,103.13061 0.81151,-1.33856 1.3509,0.70043 0.81736,-0.59242 -0.27213,-1.53507 1.66545,-0.33803 0.44916,1.38477 1.11729,0.18824 0.8954,-1.28796 1.38356,0.97718 -0.58425,1.24711 0.66911,0.97474 1.45477,-0.17946 0.34772,1.55209 -1.38845,0.44796 -0.16337,1.0725 1.19093,0.77532 -1.06414,1.47183 -1.19093,-0.77533 -0.87637,0.64252 0.26335,1.64402 -1.72446,0.38813 -0.48281,-1.3765 -1.07535,-0.16296 -0.80225,1.08709 -1.45135,-0.81813 0.70227,-1.34731 -0.71983,-0.89108 -1.44648,0.21303 -0.39746,-1.75346 1.50598,-0.40565 0.16337,-1.0725 z"
           id="path56"
           sodipodi:nodetypes="ccccccccccccccccccccccccccccccccc" /><ellipse
           style="fill:#ffffff;fill-opacity:1;stroke:#000000;stroke-width:0.377;stroke-linecap:round;stroke-dasharray:none;stroke-opacity:1;paint-order:fill markers stroke"
           id="path57"
           cx="120.49151"
           cy="138.03772"
           rx="2.2327354"
           ry="2.350775"
           transform="matrix(0.97111364,-0.23861747,0.23982045,0.97081726,0,0)" /><path
           style="opacity:0.454811;fill:none;fill-opacity:1;stroke:#000000;stroke-width:0.698296;stroke-linecap:round;stroke-dasharray:none;stroke-opacity:1;paint-order:fill markers stroke;filter:url(#filter63)"
           d="m 96.435414,108.77296 c 0,0 0.327265,1.59844 1.054717,2.55302 0.59425,0.77979 1.435796,1.3602 2.354873,1.67543 1.286166,0.44116 3.261836,-0.0287 3.261836,-0.0287"
           id="path60"
           sodipodi:nodetypes="cssc"
           transform="matrix(0.54060624,0,0,0.53916633,92.380926,51.534977)" /><path
           style="opacity:0.454811;fill:none;fill-opacity:1;stroke:#000000;stroke-width:0.698296;stroke-linecap:round;stroke-dasharray:none;stroke-opacity:1;paint-order:fill markers stroke;filter:url(#filter62)"
           d="m 97.947821,109.16185 c 0,0 0.172918,0.56522 0.722136,1.27794 0.448652,0.58221 1.08401,1.01557 1.777903,1.25093 0.97104,0.32938 1.46555,0.0597 1.46555,0.0597"
           id="path61"
           sodipodi:nodetypes="cssc"
           transform="matrix(0.54060624,0,0,0.53916633,92.380926,51.534977)" /><path
           style="opacity:0.454811;fill:none;fill-opacity:1;stroke:#000000;stroke-width:0.698296;stroke-linecap:round;stroke-dasharray:none;stroke-opacity:1;paint-order:fill markers stroke;filter:url(#filter64)"
           d="m 94.821185,108.20889 c 0,0 0.853022,3.12464 1.740884,4.2969 0.725288,0.95761 1.752403,1.67037 2.874146,2.05748 1.569775,0.54176 4.908905,-0.34635 4.908905,-0.34635"
           id="path62"
           sodipodi:nodetypes="cssc"
           transform="matrix(0.54060624,0,0,0.53916633,92.380926,51.534977)" /><path
           sodipodi:type="star"
           style="opacity:0.0962099;fill:#000000;fill-opacity:1;stroke:#000000;stroke-width:7.89361;stroke-dasharray:none;stroke-opacity:1;paint-order:fill markers stroke;filter:url(#filter58)"
           id="path58"
           inkscape:flatsided="true"
           sodipodi:sides="3"
           sodipodi:cx="163.44737"
           sodipodi:cy="338.13174"
           sodipodi:r1="40.286362"
           sodipodi:r2="20.143181"
           sodipodi:arg1="2.2574179"
           sodipodi:arg2="3.3046154"
           inkscape:rounded="0.07"
           inkscape:randomized="0"
           d="m 137.90872,369.2889 c -3.7776,-3.0964 6.75473,-67.12955 11.32509,-68.85285 4.57036,-1.72331 54.75853,39.41454 53.96577,44.23424 -0.79275,4.8197 -61.51325,27.71501 -65.29086,24.61861 z"
           transform="matrix(-0.04184046,0.02906832,-0.02919229,-0.03423625,198.0631,118.61798)"
           inkscape:transform-center-x="-1.0501384"
           inkscape:transform-center-y="-1.6542722" /><rect
           style="opacity:0.987448;fill:#ffffff;fill-opacity:1;stroke:#000000;stroke-width:0.377;stroke-linecap:round;stroke-dasharray:none;stroke-opacity:1;paint-order:fill markers stroke"
           id="rect4"
           width="12.428091"
           height="18.421461"
           x="201.23598"
           y="17.706175"
           rx="2.0455024"
           ry="2.0455027"
           clip-path="none"
           transform="matrix(0.89324297,0.44957424,-0.44898727,0.89353815,0,0)" /><path
           sodipodi:type="star"
           style="opacity:0.0962099;mix-blend-mode:normal;fill:#000000;fill-opacity:1;stroke:#000000;stroke-width:7.89361;stroke-dasharray:none;stroke-opacity:1;paint-order:fill markers stroke;filter:url(#filter60)"
           id="path53"
           inkscape:flatsided="true"
           sodipodi:sides="3"
           sodipodi:cx="163.44737"
           sodipodi:cy="338.13174"
           sodipodi:r1="40.286362"
           sodipodi:r2="20.143181"
           sodipodi:arg1="2.2574179"
           sodipodi:arg2="3.3046154"
           inkscape:rounded="0.07"
           inkscape:randomized="0"
           d="m 137.90872,369.2889 c -3.7776,-3.0964 6.75473,-67.12955 11.32509,-68.85285 4.57036,-1.72331 54.75853,39.41454 53.96577,44.23424 -0.79275,4.8197 -61.51325,27.71501 -65.29086,24.61861 z"
           transform="matrix(-0.04184046,0.02906832,-0.02919229,-0.03423625,197.90956,118.65989)"
           inkscape:transform-center-x="-1.0501384"
           inkscape:transform-center-y="-1.6542722" /><path
           style="opacity:0.987448;fill:#f4f0ff;fill-opacity:1;stroke:#000000;stroke-width:0.377;stroke-linecap:round;stroke-dasharray:none;stroke-opacity:1;paint-order:fill markers stroke"
           d="m 182.3858,112.72097 -0.25526,0.52195"
           id="path55" /><path
           sodipodi:type="star"
           style="opacity:0.987448;fill:#f4f0ff;fill-opacity:1;stroke:#000000;stroke-width:7.89361;stroke-dasharray:none;stroke-opacity:1;paint-order:fill markers stroke"
           id="path54"
           inkscape:flatsided="true"
           sodipodi:sides="3"
           sodipodi:cx="163.44737"
           sodipodi:cy="338.13174"
           sodipodi:r1="40.286362"
           sodipodi:r2="20.143181"
           sodipodi:arg1="2.2574179"
           sodipodi:arg2="3.3046154"
           inkscape:rounded="0.07"
           inkscape:randomized="0"
           d="m 137.90872,369.2889 c -3.7776,-3.0964 6.75473,-67.12955 11.32509,-68.85285 4.57036,-1.72331 54.75853,39.41454 53.96577,44.23424 -0.79275,4.8197 -61.51325,27.71501 -65.29086,24.61861 z"
           transform="matrix(-0.04184046,0.02906832,-0.02919229,-0.03423625,197.77703,118.33267)"
           inkscape:transform-center-x="-1.0501384"
           inkscape:transform-center-y="-1.6542722" /><text
           xml:space="preserve"
           style="font-size:5.34904px;line-height:normal;font-family:'Open Sans';-inkscape-font-specification:'Open Sans';text-decoration-color:#000000;opacity:0.987448;fill:#2d2b2d;fill-opacity:1;stroke:none;stroke-width:0.377;stroke-linecap:round;stroke-dasharray:none;stroke-opacity:1;paint-order:fill markers stroke"
           x="151.23221"
           y="125.63524"
           id="text64"
           transform="scale(1.0118368,0.98830167)"><tspan
             sodipodi:role="line"
             id="tspan64"
             style="font-style:normal;font-variant:normal;font-weight:normal;font-stretch:normal;font-family:Candara;-inkscape-font-specification:Candara;fill:#2d2b2d;fill-opacity:1;stroke:#2b282b;stroke-width:0.377;stroke-dasharray:none;stroke-opacity:1"
             x="151.23221"
             y="125.63524">CMS</tspan></text><rect
           style="fill:#ffffff;fill-opacity:1;stroke:none;stroke-width:0.377;stroke-linecap:round;stroke-dasharray:none;stroke-opacity:1;paint-order:fill markers stroke"
           id="rect73"
           width="8.3689604"
           height="7.6253524"
           x="170.20709"
           y="119.96957"
           rx="2.0455036"
           ry="0.86301655" /><ellipse
           style="fill:#ffffff;fill-opacity:1;stroke:#000000;stroke-width:0.377;stroke-linecap:round;stroke-dasharray:none;stroke-opacity:1;paint-order:fill markers stroke"
           id="path70"
           cx="174.38911"
           cy="119.90258"
           rx="4.1549163"
           ry="1.1248386" /><ellipse
           style="fill:#ffffff;fill-opacity:1;stroke:#000000;stroke-width:0.377;stroke-linecap:round;stroke-dasharray:none;stroke-opacity:1;paint-order:fill markers stroke"
           id="ellipse70"
           cx="174.38911"
           cy="127.34383"
           rx="4.1549163"
           ry="1.1248386" /><path
           style="fill:#ffffff;fill-opacity:1;stroke:#000000;stroke-width:0.377;stroke-linecap:round;stroke-dasharray:none;stroke-opacity:1;paint-order:fill markers stroke"
           d="m 170.25955,121.22145 v 6.20477"
           id="path71" /><path
           style="fill:#ffffff;fill-opacity:1;stroke:#000000;stroke-width:0.377;stroke-linecap:round;stroke-dasharray:none;stroke-opacity:1;paint-order:fill markers stroke"
           d="m 178.5414,120.03025 v 7.36438"
           id="path72" /><path
           style="fill:#ffffff;fill-opacity:1;stroke:#000000;stroke-width:0.377;stroke-linecap:round;stroke-dasharray:none;stroke-opacity:1;paint-order:fill markers stroke"
           d="m 170.25955,120.54633 v 0.35171"
           id="path73" /><path
           style="opacity:0.437318;fill:#ffffff;fill-opacity:1;stroke:#000000;stroke-width:0.377;stroke-linecap:round;stroke-dasharray:none;stroke-opacity:1;paint-order:fill markers stroke"
           id="ellipse74"
           sodipodi:type="arc"
           sodipodi:cx="174.24301"
           sodipodi:cy="121.82571"
           sodipodi:rx="4.1549163"
           sodipodi:ry="1.1248386"
           sodipodi:start="1.8939778"
           sodipodi:end="2.8397352"
           sodipodi:open="true"
           sodipodi:arc-type="arc"
           d="m 172.92347,122.89231 a 4.1549163,1.1248386 0 0 1 -2.64751,-0.7322" /><path
           style="fill:#ffffff;fill-opacity:1;stroke:#000000;stroke-width:0.377;stroke-linecap:round;stroke-dasharray:none;stroke-opacity:1;paint-order:fill markers stroke"
           id="path74"
           sodipodi:type="arc"
           sodipodi:cx="174.19135"
           sodipodi:cy="122.28942"
           sodipodi:rx="4.1549163"
           sodipodi:ry="1.1248386"
           sodipodi:start="1.8939778"
           sodipodi:end="2.8397352"
           sodipodi:open="true"
           sodipodi:arc-type="arc"
           d="m 172.87181,123.35603 a 4.1549163,1.1248386 0 0 1 -2.64752,-0.7322" /><path
           style="opacity:0.437318;fill:#ffffff;fill-opacity:1;stroke:#000000;stroke-width:0.377;stroke-linecap:round;stroke-dasharray:none;stroke-opacity:1;paint-order:fill markers stroke"
           id="path75"
           sodipodi:type="arc"
           sodipodi:cx="174.24301"
           sodipodi:cy="122.85618"
           sodipodi:rx="4.1549163"
           sodipodi:ry="1.1248386"
           sodipodi:start="1.8939778"
           sodipodi:end="2.8397352"
           sodipodi:open="true"
           sodipodi:arc-type="arc"
           d="m 172.92347,123.92278 a 4.1549163,1.1248386 0 0 1 -2.64751,-0.73219" /><path
           style="opacity:0.437318;fill:#ffffff;fill-opacity:1;stroke:#000000;stroke-width:0.377;stroke-linecap:round;stroke-dasharray:none;stroke-opacity:1;paint-order:fill markers stroke"
           id="path76"
           sodipodi:type="arc"
           sodipodi:cx="174.24301"
           sodipodi:cy="123.42291"
           sodipodi:rx="4.1549163"
           sodipodi:ry="1.1248386"
           sodipodi:start="1.8939778"
           sodipodi:end="2.8397352"
           sodipodi:open="true"
           sodipodi:arc-type="arc"
           d="m 172.92347,124.48952 a 4.1549163,1.1248386 0 0 1 -2.64751,-0.7322" /></g><text
         xml:space="preserve"
         style="font-style:normal;font-variant:normal;font-weight:normal;font-stretch:normal;font-size:4.95584px;line-height:normal;font-family:Candara;-inkscape-font-specification:Candara;text-decoration-color:#000000;fill:#000000;fill-opacity:1;stroke:#2d2b2d;stroke-width:0.208154;stroke-linecap:round;stroke-dasharray:none;stroke-opacity:1;paint-order:fill markers stroke"
         x="73.052391"
         y="144.21544"
         id="text2"
         transform="scale(1.0062555,0.99378339)"><tspan
           sodipodi:role="line"
           id="tspan2"
           style="fill:#000000;fill-opacity:1;stroke:#2d2b2d;stroke-width:0.208154;stroke-dasharray:none;stroke-opacity:1"
           x="73.052391"
           y="144.21544">static site generator</tspan></text><path
         style="opacity:0.527697;mix-blend-mode:normal;fill:none;fill-opacity:1;stroke:#000000;stroke-width:0.740897;stroke-linecap:round;stroke-dasharray:none;stroke-opacity:1;paint-order:fill markers stroke;filter:url(#filter40)"
         d="m 45.435644,129.16224 c 0.11645,0.38818 0.515052,-2.08889 -0.334108,-3.71646 -0.143043,-0.27417 -0.263179,-0.39122 -0.519577,-0.56411 -0.485278,-0.32722 -1.140959,-0.38414 -1.589969,-0.009 -0.553004,0.46239 -0.372445,1.38513 0.08447,1.94267 0.438239,0.53475 2.088853,1.44547 2.287516,2.1077 z"
         id="path10"
         sodipodi:nodetypes="sssssss"
         transform="matrix(0.54060624,0,0,0.53916633,79.001865,55.183812)" /><path
         style="fill:none;fill-opacity:1;stroke:#000000;stroke-width:0.301;stroke-linecap:round;stroke-dasharray:none;stroke-opacity:1;paint-order:fill markers stroke"
         d="m 103.75644,124.60515 c 0.063,0.20929 0.27844,-1.12626 -0.18062,-2.00379 -0.0773,-0.14783 -0.14228,-0.21094 -0.28089,-0.30415 -0.26234,-0.17643 -0.61681,-0.20712 -0.85955,-0.005 -0.29895,0.24931 -0.20134,0.74683 0.0457,1.04743 0.23692,0.28832 1.12925,0.77935 1.23665,1.1364 z"
         id="path3"
         sodipodi:nodetypes="sssssss" /><path
         style="opacity:0.411079;mix-blend-mode:normal;fill:none;fill-opacity:1;stroke:#000000;stroke-width:0.927654;stroke-linecap:round;stroke-dasharray:none;stroke-opacity:1;paint-order:fill markers stroke;filter:url(#filter39)"
         d="m 9.4937275,129.5945 c 0.013402,-0.49853 -0.1739717,-3.51829 -0.059125,-4.00359 0.071215,-0.30093 0.3855267,-0.68019 0.6419245,-0.85308 0.485279,-0.32722 1.054446,-0.45147 1.503456,-0.076 0.553004,0.46239 0.127502,2.01862 -0.582804,2.05248 -0.690599,0.0329 -1.5113381,3.17358 -1.5034515,2.88022 z"
         id="path5"
         sodipodi:nodetypes="ssssss"
         transform="matrix(0.54060624,0,0,0.53916633,79.002578,55.265789)" /><path
         style="fill:none;fill-opacity:1;stroke:#000000;stroke-width:0.301;stroke-linecap:round;stroke-dasharray:none;stroke-opacity:1;paint-order:fill markers stroke"
         d="m 83.943167,124.95662 c 0.0072,-0.26879 -0.09405,-1.89695 -0.03196,-2.1586 0.0385,-0.16225 0.208418,-0.36674 0.347028,-0.45995 0.262345,-0.17643 0.57004,-0.24342 0.812778,-0.041 0.298957,0.2493 0.06893,1.08837 -0.315067,1.10663 -0.373343,0.0177 -0.817039,1.71108 -0.812776,1.55291 z"
         id="path6"
         sodipodi:nodetypes="ssssss" /><rect
         style="opacity:0.987448;fill:#ffffff;fill-opacity:1;stroke:#000000;stroke-width:0.401;stroke-linecap:round;stroke-dasharray:none;stroke-opacity:1;paint-order:fill markers stroke"
         id="rect10"
         width="17.607128"
         height="15.334841"
         x="84.857529"
         y="117.25587"
         rx="2.0455036"
         ry="2.0455036"
         clip-path="none" /><path
         sodipodi:type="star"
         style="opacity:0.247813;mix-blend-mode:normal;fill:#000000;fill-opacity:1;stroke:#000000;stroke-width:6.07774;stroke-dasharray:none;stroke-opacity:1;paint-order:fill markers stroke;filter:url(#filter41)"
         id="path13"
         inkscape:flatsided="true"
         sodipodi:sides="3"
         sodipodi:cx="163.44737"
         sodipodi:cy="338.13174"
         sodipodi:r1="40.286362"
         sodipodi:r2="20.143181"
         sodipodi:arg1="2.2574179"
         sodipodi:arg2="3.3046154"
         inkscape:rounded="0.07"
         inkscape:randomized="0"
         d="m 137.90872,369.2889 c -3.7776,-3.0964 6.75473,-67.12955 11.32509,-68.85285 4.57036,-1.72331 54.75853,39.41454 53.96577,44.23424 -0.79275,4.8197 -61.51325,27.71501 -65.29086,24.61861 z"
         transform="matrix(-0.03449189,0.06170298,-0.05735436,-0.02499467,125.60847,117.42279)"
         inkscape:transform-center-x="-1.0501384"
         inkscape:transform-center-y="-1.6542722" /><path
         sodipodi:type="star"
         style="opacity:0.987448;fill:#f4f0ff;fill-opacity:1;stroke:#000000;stroke-width:6.04458;stroke-dasharray:none;stroke-opacity:1;paint-order:fill markers stroke"
         id="path14"
         inkscape:flatsided="true"
         sodipodi:sides="3"
         sodipodi:cx="163.44737"
         sodipodi:cy="338.13174"
         sodipodi:r1="40.286362"
         sodipodi:r2="20.143181"
         sodipodi:arg1="2.2574179"
         sodipodi:arg2="3.3046154"
         inkscape:rounded="0.07"
         inkscape:randomized="0"
         d="m 137.90872,369.2889 c -3.7776,-3.0964 6.75473,-67.12955 11.32509,-68.85285 4.57036,-1.72331 54.75853,39.41454 53.96577,44.23424 -0.79275,4.8197 -61.51325,27.71501 -65.29086,24.61861 z"
         transform="matrix(-0.03449189,0.06170298,-0.05735436,-0.02499467,125.24318,117.09491)"
         inkscape:transform-center-x="-1.0501384"
         inkscape:transform-center-y="-1.6542722" /><rect
         style="opacity:0.303207;mix-blend-mode:normal;fill:none;fill-opacity:1;stroke:#000000;stroke-width:1.28931;stroke-linecap:round;stroke-dasharray:none;stroke-opacity:1;paint-order:fill markers stroke;filter:url(#filter42)"
         id="rect14"
         width="36.677418"
         height="11.467181"
         x="9.1323452"
         y="126.88566"
         rx="3.7837219"
         ry="1.60065"
         transform="matrix(0.54060624,0,0,0.53916633,79.001865,55.183812)" /><rect
         style="fill:#ffffff;fill-opacity:1;stroke:#000000;stroke-width:0.296;stroke-linecap:round;stroke-dasharray:none;stroke-opacity:1;paint-order:fill markers stroke"
         id="rect15"
         width="19.828041"
         height="6.1827178"
         x="83.975403"
         y="123.23201"
         rx="2.0455036"
         ry="0.86301655" /><text
         xml:space="preserve"
         style="font-size:5.34904px;line-height:normal;font-family:'Open Sans';-inkscape-font-specification:'Open Sans';text-decoration-color:#000000;opacity:0.987448;fill:#2d2b2d;fill-opacity:1;stroke:#000000;stroke-width:0.201;stroke-linecap:round;stroke-dasharray:none;stroke-opacity:1;paint-order:fill markers stroke"
         x="85.68869"
         y="129.47472"
         id="text15"
         transform="scale(1.0118368,0.98830167)"><tspan
           sodipodi:role="line"
           id="tspan15"
           style="font-style:normal;font-variant:normal;font-weight:normal;font-stretch:normal;font-family:Candara;-inkscape-font-specification:Candara;fill:#2d2b2d;fill-opacity:1;stroke:#000000;stroke-width:0.201;stroke-dasharray:none;stroke-opacity:1"
           x="85.68869"
           y="129.47472">file.md</tspan></text><path
         style="fill:none;fill-opacity:1;stroke:#000000;stroke-width:0.390899;stroke-linecap:round;stroke-dasharray:none;stroke-opacity:1;marker-end:url(#marker79);paint-order:fill markers stroke"
         d="m 94.524779,112.37842 c 0,0 0.774238,-3.24179 -1.736706,-5.98538 -0.595178,-0.65032 -5.629483,-5.82464 -6.016056,-5.09222 -0.417671,0.79133 -0.481268,2.51995 -0.05688,3.05459 0.685795,0.864 2.373417,-2.71965 2.265158,-3.71944 -0.222201,-2.052566 -4.688175,-7.276298 -5.78323,-9.663767"
         id="path16"
         sodipodi:nodetypes="cssssc" /><path
         style="fill:none;fill-opacity:1;stroke:#000000;stroke-width:0.390899;stroke-linecap:round;stroke-dasharray:none;stroke-opacity:1;marker-end:url(#marker79);paint-order:fill markers stroke"
         d="m 94.476225,112.48438 c 0,0 2.096776,-2.59079 1.014792,-6.14907 -0.256469,-0.84343 -2.566583,-7.683108 -3.231259,-7.18906 -0.718137,0.533782 -1.521114,2.0659 -1.36884,2.7313 0.246051,1.07531 3.314346,-1.42995 3.64791,-2.378638 0.684857,-1.947667 -1.091198,-8.586788 -1.049376,-11.21308"
         id="path17"
         sodipodi:nodetypes="cssssc" /><path
         style="fill:none;fill-opacity:1;stroke:#000000;stroke-width:0.390899;stroke-linecap:round;stroke-dasharray:none;stroke-opacity:1;marker-end:url(#marker79);paint-order:fill markers stroke"
         d="m 94.384776,112.54093 c 0,0 -0.623561,-3.27409 2.01151,-5.89869 0.624608,-0.62212 5.892694,-5.55821 6.244994,-4.8087 0.38069,0.80977 0.36427,2.5395 -0.0844,3.05396 -0.725,0.83138 -2.24517,-2.82647 -2.09082,-3.82017 0.31684,-2.040109 5.01949,-7.051832 6.22374,-9.386132"
         id="path19"
         sodipodi:nodetypes="cssssc" /><text
         xml:space="preserve"
         style="font-style:normal;font-variant:normal;font-weight:normal;font-stretch:normal;font-size:4.95584px;line-height:normal;font-family:Candara;-inkscape-font-specification:Candara;text-decoration-color:#000000;fill:#000000;fill-opacity:1;stroke:#2d2b2d;stroke-width:0.208154;stroke-linecap:round;stroke-dasharray:none;stroke-opacity:1;paint-order:fill markers stroke"
         x="68.108681"
         y="88.603973"
         id="text19"
         transform="matrix(1.0062538,-0.00182843,0.00180577,0.99378175,0,0)"><tspan
           sodipodi:role="line"
           id="tspan19"
           style="fill:#000000;fill-opacity:1;stroke:#2d2b2d;stroke-width:0.208154;stroke-dasharray:none;stroke-opacity:1"
           x="68.108681"
           y="88.603973">MKDocs</tspan></text><text
         xml:space="preserve"
         style="font-style:normal;font-variant:normal;font-weight:normal;font-stretch:normal;font-size:4.95584px;line-height:normal;font-family:Candara;-inkscape-font-specification:Candara;text-decoration-color:#000000;fill:#000000;fill-opacity:1;stroke:#2d2b2d;stroke-width:0.208154;stroke-linecap:round;stroke-dasharray:none;stroke-opacity:1;paint-order:fill markers stroke"
         x="88.041855"
         y="86.319344"
         id="text20"
         transform="matrix(1.0062538,-0.00182843,0.00180577,0.99378175,0,0)"><tspan
           sodipodi:role="line"
           id="tspan20"
           style="fill:#000000;fill-opacity:1;stroke:#2d2b2d;stroke-width:0.208154;stroke-dasharray:none;stroke-opacity:1"
           x="88.041855"
           y="86.319344">HUGO</tspan></text><text
         xml:space="preserve"
         style="font-style:normal;font-variant:normal;font-weight:normal;font-stretch:normal;font-size:4.95584px;line-height:normal;font-family:Candara;-inkscape-font-specification:Candara;text-decoration-color:#000000;fill:#000000;fill-opacity:1;stroke:#2d2b2d;stroke-width:0.208154;stroke-linecap:round;stroke-dasharray:none;stroke-opacity:1;paint-order:fill markers stroke"
         x="104.05993"
         y="90.295464"
         id="text21"
         transform="matrix(1.0062538,-0.00182843,0.00180577,0.99378175,0,0)"><tspan
           sodipodi:role="line"
           id="tspan21"
           style="fill:#000000;fill-opacity:1;stroke:#2d2b2d;stroke-width:0.208154;stroke-dasharray:none;stroke-opacity:1"
           x="104.05993"
           y="90.295464">Jekyll</tspan></text><text
         xml:space="preserve"
         style="font-style:normal;font-variant:normal;font-weight:normal;font-stretch:normal;font-size:6.14449px;line-height:normal;font-family:Candara;-inkscape-font-specification:Candara;text-decoration-color:#000000;fill:#000000;fill-opacity:1;stroke:#2d2b2d;stroke-width:0.208154;stroke-linecap:round;stroke-dasharray:none;stroke-opacity:1;paint-order:fill markers stroke"
         x="48.955166"
         y="158.00523"
         id="text22"
         transform="scale(1.0020672,0.99793705)"><tspan
           sodipodi:role="line"
           id="tspan22"
           style="fill:#000000;fill-opacity:1;stroke:#2d2b2d;stroke-width:0.208154;stroke-dasharray:none;stroke-opacity:1"
           x="48.955166"
           y="158.00523">Different scenarios to apply Bioschemas</tspan></text><path
         style="opacity:0.436073;fill:#000000;stroke:#000000;stroke-width:0.586349;stroke-linecap:round;stroke-dasharray:none;paint-order:fill markers stroke"
         d="M 20.811872,156.76475 H 46.759143"
         id="path64" /><path
         style="opacity:0.436073;fill:#000000;stroke:#000000;stroke-width:0.586349;stroke-linecap:round;stroke-dasharray:none;paint-order:fill markers stroke"
         d="m 153.52135,156.76475 h 25.94727"
         id="path65" /></g><rect
       style="opacity:0.436073;fill:none;fill-opacity:1;stroke:#f9f9fc;stroke-width:0.301;stroke-linecap:round;stroke-dasharray:none;stroke-opacity:1;paint-order:fill markers stroke"
       id="rect65"
       width="287.6351"
       height="90.590721"
       x="-39.752892"
       y="74.918922"
       rx="2.0455036"
       ry="0.86301661" /></g></svg>
